<svg width="353" height="353" viewBox="0 0 353 353" fill="none" xmlns="http://www.w3.org/2000/svg">
<rect width="353" height="353" fill="#F1F1F1"/>
<path d="M38.0259 131H56.2713V167.797C46.1946 167.797 38.0259 159.825 38.0259 149.99V131Z" fill="#101010"/>
<path d="M147.519 131H165.765V149.99C165.765 159.825 157.596 167.797 147.519 167.797V131Z" fill="#101010"/>
<path d="M165.721 223H147.478V186.211H56.2471V223H38V167.813H165.717L165.721 223Z" fill="#101010"/>
<path d="M186.261 149.405H204.506V223H186.261V149.405Z" fill="#101010"/>
<path d="M201.444 167.802H298.754V186.2H201.444V167.802Z" fill="#101010"/>
<path d="M204.506 149.405C204.506 139.244 212.97 131.001 223.382 131.001H295.758V149.399L204.506 149.405Z" fill="#101010"/>
<path d="M295.758 149.399L314 149.405V223H295.755L295.758 149.399Z" fill="#101010"/>
</svg>
